<svg xmlns="http://www.w3.org/2000/svg" width="400" height="400" viewBox="0 0 400 400"><defs><filter id="glow" x="-50%" y="-50%" width="200%" height="200%"><feGaussianBlur stdDeviation="2.5" result="blur"/><feMerge><feMergeNode in="blur"/><feMergeNode in="SourceGraphic"/></feMerge></filter><pattern id="circuit" patternUnits="userSpaceOnUse" width="400" height="400"><path d="M80 400 L80 350 L120 310 L120 200 L160 160" stroke="#89ddff" stroke-width="2" fill="none" opacity="0.12"/><path d="M180 400 L180 320 L220 280" stroke="#89ddff" stroke-width="1.5" fill="none" opacity="0.14"/><path d="M120 250 L90 220" stroke="#89ddff" stroke-width="1.5" fill="none" opacity="0.1"/><path d="M220 220 L250 190" stroke="#89ddff" stroke-width="1.2" fill="none" opacity="0.12"/><path d="M300 120 L340 80" stroke="#89ddff" stroke-width="1.5" fill="none" opacity="0.12"/><path d="M10 200 L 50 160 L 50 100 L 80 70" stroke="#89ddff" stroke-width="1.8" fill="none" opacity="0.11"/><circle cx="160" cy="160" r="3" fill="#89ddff" opacity="0.7" filter="url(#glow)"/><circle cx="220" cy="280" r="3" fill="#89ddff" opacity="0.7" filter="url(#glow)"/><circle cx="340" cy="80" r="3" fill="#89ddff" opacity="0.7" filter="url(#glow)"/><circle cx="80" cy="70" r="3" fill="#89ddff" opacity="0.7" filter="url(#glow)"/><circle cx="120" cy="310" r="3" fill="#89ddff" opacity="0.7" filter="url(#glow)"/><circle cx="120" cy="200" r="3" fill="#89ddff" opacity="0.7" filter="url(#glow)"/><circle cx="180" cy="320" r="3" fill="#89ddff" opacity="0.7" filter="url(#glow)"/><circle cx="120" cy="250" r="3" fill="#89ddff" opacity="0.7" filter="url(#glow)"/><circle cx="90" cy="220" r="3" fill="#89ddff" opacity="0.7" filter="url(#glow)"/><circle cx="220" cy="220" r="3" fill="#89ddff" opacity="0.7" filter="url(#glow)"/><circle cx="250" cy="190" r="3" fill="#89ddff" opacity="0.7" filter="url(#glow)"/><circle cx="50" cy="160" r="3" fill="#89ddff" opacity="0.7" filter="url(#glow)"/><circle cx="50" cy="100" r="3" fill="#89ddff" opacity="0.7" filter="url(#glow)"/></pattern></defs><rect width="400" height="400" fill="url(#circuit)"/></svg>